<svg xmlns="http://www.w3.org/2000/svg" viewBox="0 0 24 24" fill="none" stroke="currentColor" stroke-width="2" stroke-linecap="round" stroke-linejoin="round">
  <path d="M21.58 13.29c-.17 1.85-.8 3.56-2.62 4.54-3.05 1.64-7.68 1.99-11.12.6-1.83-.73-2.4-3.46-2.4-3.46M7.92 7.92c-1.41 1.41-1.47 3.71-.68 5.26m8.84-8.84c1.42 1.41 1.48 3.71.69 5.26M5.33 5.33c-2.05 2.05-2.07 5.35-1 7.64m14.34-14.34c2.05 2.05 2.07 5.35 1 7.64M12 8.5a3.5 3.5 0 0 0-3.5 3.5v5a3.5 3.5 0 0 0 7 0v-5a3.5 3.5 0 0 0-3.5-3.5z"/>
</svg> 