<svg xmlns="http://www.w3.org/2000/svg" width="178" height="65" viewBox="0 0 178 65" fill="none"><path d="M139.942 58.7c.717 0 1.293-.258 1.73-.773.444-.516.666-1.142.666-1.88 0-.745-.197-1.364-.591-1.858-.394-.502-.949-.97-1.665-1.408-1.139-.637-1.941-1.285-2.406-1.944-.459-.659-.688-1.568-.688-2.729 0-1.16.355-2.123 1.064-2.89.716-.766 1.64-1.149 2.771-1.149 1.132 0 2.138.258 3.019.774-.136.322-.333.805-.591 1.45-.831-.444-1.601-.666-2.31-.666-.701 0-1.264.236-1.686.709-.415.465-.623 1.07-.623 1.815 0 .745.154 1.34.462 1.784.308.436.956.93 1.944 1.482 1.046.566 1.801 1.196 2.267 1.89.465.695.698 1.533.698 2.514 0 1.34-.365 2.407-1.096 3.202-.723.794-1.701 1.192-2.932 1.192-1.232 0-2.271-.208-3.116-.623v-1.719c.43.25.924.451 1.483.602.558.15 1.092.225 1.6.225zm14.782 1.3h-1.676v-7.444h-4.942V60h-1.665V44.295h1.665v6.735h4.942v-6.735h1.676V60zm7.637-15.93c1.569 0 2.772.698 3.61 2.094.838 1.396 1.257 3.387 1.257 5.973 0 2.585-.423 4.58-1.268 5.983-.838 1.397-2.052 2.095-3.642 2.095-1.589 0-2.8-.698-3.63-2.095-.831-1.403-1.247-3.409-1.247-6.015 0-5.357 1.64-8.036 4.92-8.036zm0 1.525c-1.06 0-1.858.555-2.395 1.665-.537 1.103-.806 2.728-.806 4.877 0 2.148.269 3.777.806 4.887.537 1.11 1.325 1.666 2.363 1.666 1.046 0 1.837-.548 2.374-1.644.537-1.103.806-2.743.806-4.92 0-4.354-1.049-6.531-3.148-6.531zm7.574-1.3h2.76c1.526 0 2.65.376 3.373 1.128.731.752 1.096 1.916 1.096 3.491 0 3.244-1.522 4.866-4.565 4.866h-.989V60h-1.675V44.295zm1.675 1.482v6.52h.892c1.053 0 1.812-.257 2.277-.773.466-.522.699-1.357.699-2.502 0-1.154-.233-1.98-.699-2.482-.458-.508-1.174-.763-2.148-.763h-1.021zM19.984 17.777c.04.013.091.02.157.02h.468c1.016 0 2.038-.137 3.067-.41a11.405 11.405 0 0 0 2.793-1.133c.833-.495 1.51-1.08 2.031-1.758.52-.69.781-1.445.781-2.266 0-.442-.097-.833-.293-1.171a2.517 2.517 0 0 0-.82-.88c-.339-.234-.755-.41-1.25-.527a6.134 6.134 0 0 0-1.602-.195c-1.028 0-2.03.13-3.007.39a13.01 13.01 0 0 0-2.754 1.075c-.86.443-1.647.97-2.364 1.582a11.028 11.028 0 0 0-1.855 1.973 8.965 8.965 0 0 0-1.211 2.207 6.556 6.556 0 0 0-.43 2.304c0 .768.143 1.498.43 2.188a24.45 24.45 0 0 1 2.52.195c.78.104 1.458.267 2.03.488.574.209 1.023.482 1.348.82.326.34.489.75.489 1.231 0 .521-.196.918-.586 1.192-.39.273-.88.41-1.465.41-.469 0-.95-.078-1.445-.235a7.118 7.118 0 0 1-1.446-.644 9.468 9.468 0 0 1-1.328-1.016 9.244 9.244 0 0 1-1.133-1.328c-1.445.117-2.786.456-4.023 1.016a10.711 10.711 0 0 0-3.184 2.148 9.765 9.765 0 0 0-2.09 3.027 8.686 8.686 0 0 0-.761 3.594c0 1.029.169 1.96.508 2.793.351.82.865 1.524 1.543 2.11.69.586 1.543 1.035 2.558 1.347 1.029.313 2.214.469 3.555.469 1.484 0 2.89-.228 4.219-.684a17.87 17.87 0 0 0 3.71-1.699 21.443 21.443 0 0 0 3.087-2.265 34.813 34.813 0 0 0 2.402-2.364 24.064 24.064 0 0 0 1.66-1.953c.417-.573.69-.944.82-1.113l.703.547c-.3.43-.703.996-1.21 1.699a24.961 24.961 0 0 1-1.856 2.207 26.015 26.015 0 0 1-2.5 2.363 19.455 19.455 0 0 1-3.164 2.13 18.065 18.065 0 0 1-3.809 1.542c-1.38.404-2.87.606-4.472.606-1.758 0-3.275-.222-4.551-.664-1.276-.443-2.337-1.042-3.184-1.797a7.015 7.015 0 0 1-1.855-2.578 8.195 8.195 0 0 1-.606-3.126A9.969 9.969 0 0 1 1.8 26.977a10.03 10.03 0 0 1 1.563-2.148 10.444 10.444 0 0 1 2.266-1.797c.872-.52 1.875-.944 3.008-1.27 1.133-.325 2.402-.52 3.808-.585a7.344 7.344 0 0 1-.547-1.465 6.578 6.578 0 0 1-.195-1.602c0-1.002.17-1.946.508-2.832.338-.898.8-1.718 1.387-2.46a10.94 10.94 0 0 1 2.09-2.012 14.095 14.095 0 0 1 2.578-1.485c.911-.416 1.855-.729 2.832-.937a13.39 13.39 0 0 1 2.93-.332c.989 0 1.868.104 2.636.312.781.196 1.439.476 1.973.84a3.85 3.85 0 0 1 1.23 1.328 3.36 3.36 0 0 1 .43 1.68c0 .677-.143 1.315-.43 1.914a5.788 5.788 0 0 1-1.133 1.64 8.473 8.473 0 0 1-1.66 1.31c-.625.377-1.295.696-2.012.956a13.55 13.55 0 0 1-2.187.606c-.755.13-1.484.195-2.188.195-.234 0-.423-.006-.566-.02a4.77 4.77 0 0 0-.254-.019l.117-1.016zm-.507 6.094c0-.312-.144-.566-.43-.762-.274-.208-.638-.37-1.094-.488a9.272 9.272 0 0 0-1.523-.254 18.413 18.413 0 0 0-1.72-.117c.248.365.522.69.821.977.313.273.632.507.957.703.326.195.651.345.977.449.338.104.657.156.957.156.351 0 .612-.065.781-.195.182-.13.274-.287.274-.469zM41.273 7.582c.456 0 .834.11 1.133.332.313.221.469.625.469 1.211 0 .404-.085.885-.254 1.445-.156.56-.378 1.172-.664 1.836a28.64 28.64 0 0 1-.977 2.07 36.177 36.177 0 0 1-1.23 2.149c-.43.716-.885 1.413-1.367 2.09a29.278 29.278 0 0 1-1.406 1.875 110.839 110.839 0 0 1-2.442 2.93c-.677.794-1.263 1.47-1.758 2.03-.494.548-.911.997-1.25 1.348-.338.339-.638.632-.898.88-.26.247-.501.475-.723.683-.221.195-.449.417-.683.664-.104.495-.157.97-.157 1.426.013.443.02.853.02 1.23 0 1.133.182 1.973.547 2.52.364.547.879.82 1.543.82.443 0 .885-.11 1.328-.332a7.584 7.584 0 0 0 1.348-.898c.442-.365.872-.775 1.289-1.23a27.91 27.91 0 0 0 1.172-1.407c.377-.482.716-.944 1.015-1.387l.781-1.152.723.547c-.039.052-.17.26-.39.625-.209.351-.489.781-.84 1.289a25.197 25.197 0 0 1-1.25 1.64 15.131 15.131 0 0 1-1.563 1.602 8.869 8.869 0 0 1-1.777 1.23 3.949 3.949 0 0 1-1.875.489 4.165 4.165 0 0 1-1.543-.293 3.627 3.627 0 0 1-1.29-.957c-.364-.443-.663-1.003-.898-1.68-.221-.677-.332-1.49-.332-2.441 0-1.185.137-2.422.41-3.711.287-1.302.67-2.604 1.153-3.907a35.177 35.177 0 0 1 1.699-3.886 44.089 44.089 0 0 1 2.07-3.633 34.92 34.92 0 0 1 2.305-3.203 25.75 25.75 0 0 1 2.363-2.559c.782-.716 1.53-1.276 2.246-1.68.716-.403 1.367-.605 1.953-.605zM29.574 27.387a99.157 99.157 0 0 0 3.203-3.477 81.013 81.013 0 0 0 5.41-6.855 37.294 37.294 0 0 0 1.934-3.086c.534-.964.95-1.843 1.25-2.637.3-.794.45-1.478.45-2.05 0-.105-.053-.242-.157-.41-.104-.183-.228-.274-.371-.274-.404 0-.938.267-1.602.8-.664.534-1.386 1.264-2.168 2.188a39.373 39.373 0 0 0-2.402 3.203 42.136 42.136 0 0 0-2.324 3.926 41.62 41.62 0 0 0-1.953 4.316 25.51 25.51 0 0 0-1.27 4.356zm8.75 7.226c.417.326.97.489 1.66.489.743 0 1.44-.118 2.09-.352a8.495 8.495 0 0 0 1.856-.918c.573-.39 1.1-.82 1.582-1.289.481-.469.911-.938 1.289-1.406.39-.482.729-.931 1.015-1.348.3-.43.54-.788.723-1.074h1.094c-.183.312-.436.716-.762 1.21-.312.483-.69.997-1.133 1.544-.43.547-.918 1.1-1.465 1.66a11.869 11.869 0 0 1-1.816 1.484c-.651.443-1.348.808-2.09 1.094a6.78 6.78 0 0 1-2.363.41c-.365 0-.723-.039-1.074-.117a4.347 4.347 0 0 1-.996-.41 388.58 388.58 0 0 0-1.25 3.105c-.417 1.016-.808 1.98-1.172 2.89-.378.912-.723 1.752-1.035 2.52-.313.769-.586 1.433-.82 1.993-.235.573-.417 1.022-.548 1.347-.13.339-.201.515-.215.528l-2.05-1.016a367.717 367.717 0 0 0 1.797-4.297c.52-1.302 1.009-2.52 1.465-3.652.442-1.133.865-2.194 1.269-3.184.39-1.002.788-1.972 1.191-2.91a3.31 3.31 0 0 1-.449-.879 3.692 3.692 0 0 1-.195-.703c-.026-.3.059-.547.254-.742a.913.913 0 0 1 .722-.313c.248 0 .476.085.684.254.39-.937.736-1.758 1.035-2.46.313-.717.573-1.316.781-1.798.235-.56.443-1.048.625-1.464 1.133-2.67 2.181-4.974 3.145-6.915.977-1.953 1.875-3.606 2.695-4.96.82-1.368 1.57-2.468 2.246-3.301.677-.847 1.29-1.504 1.836-1.973.56-.469 1.062-.781 1.504-.937.443-.17.84-.254 1.192-.254.573 0 1.054.13 1.445.39.404.248.631.677.684 1.29.052.598-.06 1.354-.333 2.265-.26.912-.624 1.882-1.093 2.91a31.835 31.835 0 0 1-1.602 3.086 34.273 34.273 0 0 1-1.875 2.871c-1.21 1.64-2.311 3.002-3.3 4.082-.977 1.081-1.837 1.953-2.579 2.617-.742.665-1.36 1.16-1.855 1.485-.495.312-.86.527-1.094.644l-2.715 6.504zM53.56 8.441a1.255 1.255 0 0 0-.157-.566c-.078-.17-.247-.254-.508-.254-.156 0-.358.04-.605.117-.247.065-.54.215-.879.45-.325.234-.696.579-1.113 1.035-.417.455-.886 1.067-1.406 1.836a38.057 38.057 0 0 0-1.68 2.851c-.599 1.133-1.244 2.5-1.934 4.102a128.75 128.75 0 0 0-1.582 3.71 695.169 695.169 0 0 1-1.972 4.708c.612-.43 1.25-.964 1.914-1.602a35.671 35.671 0 0 0 2.031-2.129 43.981 43.981 0 0 0 2.031-2.48 52.12 52.12 0 0 0 1.895-2.657 40.076 40.076 0 0 0 1.64-2.675c.508-.886.938-1.726 1.29-2.52.364-.807.637-1.543.82-2.207.182-.677.254-1.25.215-1.719zm-3.536 23.106a5.812 5.812 0 0 0-.078.937c0 .47.065.918.196 1.348.143.417.345.788.605 1.113.273.313.606.56.996.742.404.183.86.274 1.367.274 1.706 0 3.353-.58 4.942-1.738 1.588-1.16 3.17-2.995 4.746-5.508l.664.586c-.86 1.432-1.732 2.643-2.617 3.633-.886.976-1.771 1.77-2.657 2.382-.872.612-1.731 1.055-2.578 1.328-.846.274-1.653.41-2.422.41-.56 0-1.152-.077-1.777-.234a5.367 5.367 0 0 1-1.738-.78 4.28 4.28 0 0 1-1.29-1.466c-.35-.612-.526-1.373-.526-2.285 0-.977.169-1.914.507-2.812.326-.912.755-1.758 1.29-2.54a12.473 12.473 0 0 1 1.835-2.128 14.771 14.771 0 0 1 2.09-1.66 10.858 10.858 0 0 1 2.09-1.055c.677-.26 1.276-.39 1.797-.39.338 0 .683.051 1.035.155.352.104.664.267.938.489.286.221.514.514.683.879.182.364.273.8.273 1.308 0 .69-.162 1.341-.488 1.953a6.642 6.642 0 0 1-1.27 1.68c-.533.508-1.152.97-1.855 1.387-.703.403-1.439.748-2.207 1.035-.768.286-1.543.514-2.324.683-.781.17-1.523.26-2.227.274zm.157-.84a10.596 10.596 0 0 0 2.46-.547 11.255 11.255 0 0 0 2.11-.996 11.06 11.06 0 0 0 1.7-1.309 9.01 9.01 0 0 0 1.269-1.425c.338-.482.599-.944.781-1.387.182-.443.273-.84.273-1.191 0-.352-.097-.632-.293-.84a.851.851 0 0 0-.664-.313c-.573 0-1.217.209-1.933.625-.716.404-1.433.97-2.149 1.7a15.775 15.775 0 0 0-2.03 2.538 14.937 14.937 0 0 0-1.524 3.145zm28.926-4.844c0 .56-.098 1.133-.293 1.719a13.137 13.137 0 0 1-.743 1.738c-.3.573-.618 1.14-.957 1.7-.338.56-.657 1.1-.957 1.62-.3.521-.547 1.023-.742 1.505-.195.468-.293.898-.293 1.289 0 .3.065.5.195.605.13.104.274.156.43.156.495 0 1.048-.24 1.66-.722.612-.495 1.23-1.114 1.856-1.856.638-.742 1.27-1.55 1.894-2.422.625-.872 1.192-1.699 1.7-2.48l.703.547c-.105.156-.293.468-.567.937-.273.456-.612.983-1.015 1.582-.404.586-.86 1.205-1.368 1.856a16.056 16.056 0 0 1-1.601 1.777 9.717 9.717 0 0 1-1.777 1.328c-.6.352-1.205.528-1.817.528-.352 0-.67-.06-.957-.176a2.233 2.233 0 0 1-.742-.489 2.47 2.47 0 0 1-.469-.722 2.35 2.35 0 0 1-.176-.899c0-.507.111-1.054.332-1.64.235-.6.521-1.211.86-1.836.338-.625.71-1.25 1.113-1.875.404-.638.775-1.244 1.113-1.817.339-.572.619-1.1.84-1.582.234-.494.352-.918.352-1.27 0-.403-.111-.741-.332-1.015-.209-.273-.508-.41-.899-.41-.416 0-.898.176-1.445.527-.547.339-1.159.84-1.836 1.504a32.327 32.327 0 0 0-2.227 2.461c-.794.964-1.66 2.064-2.597 3.301a209.64 209.64 0 0 1-1.563 2.07c-.221.287-.443.58-.664.88l-.664.898c-.221.286-.43.56-.625.82-.195.273-.371.508-.527.703L62.582 36l2.285-3.145c.326-.442.658-.917.996-1.425.339-.508.67-1.029.996-1.563.339-.547.658-1.094.957-1.64.3-.547.58-1.081.84-1.602.378-.781.638-1.426.781-1.934.144-.52.215-.937.215-1.25 0-.351-.065-.579-.195-.683-.13-.117-.313-.176-.547-.176-.247 0-.534.13-.86.39a6.894 6.894 0 0 0-.976.977c-.338.39-.683.84-1.035 1.348-.338.495-.664.99-.977 1.484-.312.495-.605.964-.878 1.407-.274.442-.502.8-.684 1.074l-.703-.547a292.1 292.1 0 0 0 1.797-2.852 25.248 25.248 0 0 1 1.562-2.246c.508-.625.996-1.107 1.465-1.445.482-.352.99-.527 1.523-.527.287 0 .56.058.82.175.274.117.509.293.704.528.208.221.371.494.488.82.117.326.176.703.176 1.133 0 .338-.039.69-.117 1.055a15.447 15.447 0 0 1 1.601-1.387c.495-.365.95-.651 1.368-.86.416-.221.8-.377 1.152-.468.352-.091.67-.137.957-.137.247 0 .534.045.86.137.325.09.63.26.917.507.287.248.528.593.723 1.036.208.43.313.99.313 1.68zm11.21 9.473c-.677.456-1.38.82-2.109 1.094-.716.286-1.406.43-2.07.43-.495 0-.99-.072-1.485-.215a3.818 3.818 0 0 1-1.347-.704c-.404-.338-.73-.78-.977-1.328-.26-.547-.39-1.224-.39-2.031 0-.977.175-1.914.527-2.813.351-.898.82-1.731 1.406-2.5a12.958 12.958 0 0 1 2.012-2.128 14.694 14.694 0 0 1 2.324-1.621 12.395 12.395 0 0 1 2.402-1.055c.795-.248 1.517-.371 2.168-.371.638 0 1.179.071 1.621.215.456.13.84.3 1.153.507.312.196.56.41.742.645.182.234.332.456.45.664l1.054-1.387.644.43c0 .013-.104.221-.312.625-.208.39-.482.918-.82 1.582-.339.664-.736 1.445-1.192 2.344-.443.885-.911 1.83-1.406 2.832a872.345 872.345 0 0 0-1.484 3.105c-.495 1.068-.97 2.116-1.426 3.145a41.96 41.96 0 0 0 3.125-1.953c.898-.625 1.699-1.257 2.402-1.895a18.49 18.49 0 0 0 1.934-1.992 25.77 25.77 0 0 0 1.66-2.246l.723.547a19.908 19.908 0 0 1-1.7 2.363 19.39 19.39 0 0 1-2.129 2.148 32.274 32.274 0 0 1-2.851 2.188 75.872 75.872 0 0 1-3.867 2.46c-1.237 3.035-2.429 5.541-3.575 7.52-1.145 1.993-2.233 3.568-3.261 4.727-1.016 1.159-1.96 1.973-2.832 2.441-.886.47-1.68.703-2.383.703-.287 0-.593-.039-.918-.117a2.324 2.324 0 0 1-.938-.41 2.32 2.32 0 0 1-.703-.86c-.195-.364-.293-.833-.293-1.405 0-1.094.293-2.175.88-3.243.572-1.067 1.412-2.129 2.519-3.183 1.094-1.055 2.435-2.103 4.023-3.145a66.357 66.357 0 0 1 5.43-3.144c.247-.56.475-1.094.684-1.602.208-.495.403-.95.585-1.367zm1.016-2.148 1.035-1.954a92.01 92.01 0 0 1 1.074-1.933c.378-.651.775-1.315 1.192-1.992.43-.678.905-1.38 1.426-2.11a1.927 1.927 0 0 0-.196-.605 1.978 1.978 0 0 0-.43-.567 2.11 2.11 0 0 0-.703-.449 2.674 2.674 0 0 0-1.015-.176c-.443 0-.95.059-1.524.176a8.446 8.446 0 0 0-1.777.606c-.625.286-1.263.67-1.914 1.152a11.621 11.621 0 0 0-1.875 1.816c-.898 1.068-1.588 2.136-2.07 3.203-.482 1.055-.723 2.019-.723 2.891 0 .846.215 1.491.645 1.934.43.43 1.015.644 1.757.644.782 0 1.608-.24 2.48-.722.886-.482 1.759-1.12 2.618-1.914zM79.047 52.816c.495 0 1.009-.182 1.543-.547.534-.364 1.074-.865 1.62-1.503a18.347 18.347 0 0 0 1.622-2.188 45.426 45.426 0 0 0 1.582-2.676 50.187 50.187 0 0 0 1.484-2.89c.482-.99.938-1.96 1.368-2.91-1.94 1.015-3.6 2.07-4.98 3.164-1.368 1.106-2.488 2.161-3.36 3.164-.873 1.002-1.504 1.907-1.895 2.715-.403.807-.605 1.425-.605 1.855 0 .534.117.97.351 1.309.235.338.658.507 1.27.507zm37.402-29.804c-.169.338-.41.781-.722 1.328-.3.547-.625 1.152-.977 1.816a91.46 91.46 0 0 0-1.074 2.051c-.352.716-.677 1.42-.977 2.11a22.714 22.714 0 0 0-.722 1.933c-.183.599-.274 1.107-.274 1.523 0 .417.078.69.235.82.169.118.384.176.644.176.378 0 .762-.11 1.152-.331a5.838 5.838 0 0 0 1.172-.86 11.04 11.04 0 0 0 1.133-1.191 22.57 22.57 0 0 0 1.016-1.328c.325-.456.618-.886.879-1.29.26-.416.481-.768.664-1.054l.703.547a22.572 22.572 0 0 1-1.778 2.812c-.351.482-.735.95-1.152 1.407-.417.455-.859.859-1.328 1.21a6.254 6.254 0 0 1-1.445.84 4.082 4.082 0 0 1-1.563.313c-.781 0-1.354-.235-1.719-.703-.364-.47-.546-1.075-.546-1.817v-.332c.013-.182.032-.325.058-.43-.651.82-1.276 1.498-1.875 2.032-.586.534-1.159.957-1.719 1.27a5.8 5.8 0 0 1-1.601.644c-.508.13-.996.195-1.465.195-.495 0-.964-.085-1.406-.254a3.185 3.185 0 0 1-1.133-.703 3.114 3.114 0 0 1-.781-1.152c-.196-.456-.293-.983-.293-1.582 0-.742.169-1.589.507-2.54.326-.963.912-1.998 1.758-3.105.716-.95 1.459-1.751 2.227-2.402.781-.651 1.543-1.172 2.285-1.563.755-.403 1.471-.69 2.148-.859.678-.17 1.283-.254 1.817-.254 1.198 0 2.103.202 2.715.605.612.391.983.997 1.113 1.817.26-.326.534-.651.82-.977l.879-.996.625.274zm-5.996 7.422c.169-.274.378-.619.625-1.036.248-.43.508-.865.781-1.308.274-.456.541-.892.801-1.309.261-.416.488-.768.684-1.054 0-.118-.02-.306-.059-.567a2.04 2.04 0 0 0-.254-.781c-.143-.274-.371-.508-.683-.703-.313-.195-.749-.293-1.309-.293-.404 0-.859.065-1.367.195a6.968 6.968 0 0 0-1.602.625c-.56.287-1.139.67-1.738 1.152a12.987 12.987 0 0 0-1.797 1.797c-.898 1.081-1.595 2.168-2.09 3.262-.481 1.08-.722 2.057-.722 2.93 0 .742.169 1.315.507 1.718.339.404.821.606 1.446.606.716 0 1.386-.156 2.012-.469a8.057 8.057 0 0 0 1.757-1.25 16.109 16.109 0 0 0 1.563-1.68c.495-.624.976-1.236 1.445-1.835zm20.488-1.172c-.195.286-.429.677-.703 1.172-.26.481-.566 1.009-.918 1.582-.351.56-.742 1.132-1.172 1.718a10.097 10.097 0 0 1-1.386 1.582 6.95 6.95 0 0 1-1.621 1.153c-.586.3-1.211.449-1.875.449-.365 0-.71-.059-1.036-.176a2.215 2.215 0 0 1-.859-.508 2.52 2.52 0 0 1-.586-.859c-.143-.352-.215-.762-.215-1.23 0-.639.124-1.303.371-1.993.261-.703.56-1.38.899-2.03.338-.652.677-1.244 1.015-1.778.339-.547.586-.983.743-1.309.156-.325.234-.605.234-.84a.653.653 0 0 0-.176-.449 1.919 1.919 0 0 0-.41-.371 8.315 8.315 0 0 0-.508-.39 2.024 2.024 0 0 1-.429-.508c-.326.52-.658 1.048-.997 1.582-.299.455-.624.97-.976 1.543-.352.56-.69 1.113-1.016 1.66l-.703-.547 4.18-6.543.566.293a9.47 9.47 0 0 1-.136.37c-.053.17-.079.352-.079.548 0 .143.02.286.059.43.052.13.15.253.293.37.521.47.931.834 1.23 1.094.3.248.515.45.645.606.143.143.228.267.254.37a.962.962 0 0 1 .059.372c0 .156-.027.345-.079.566a5.326 5.326 0 0 1-.273.801c-.117.313-.287.684-.508 1.113-.208.417-.475.905-.801 1.465-.195.339-.39.684-.586 1.035a15.24 15.24 0 0 0-.507 1.036 8.21 8.21 0 0 0-.352 1.054c-.091.352-.137.69-.137 1.016 0 .247.033.45.098.605a.916.916 0 0 0 .293.332c.117.079.241.13.371.157.143.026.28.039.41.039.43 0 .853-.124 1.27-.371.429-.26.846-.593 1.25-.996.416-.404.814-.86 1.191-1.368.391-.52.762-1.048 1.113-1.582.352-.534.677-1.041.977-1.523.299-.495.566-.925.801-1.29l.722.548zm3.243-9.375c.13-.222.358-.606.683-1.153a64.99 64.99 0 0 1 1.172-1.816c.456-.664.944-1.328 1.465-1.992a14.946 14.946 0 0 1 1.562-1.719l.879.527c-.56.925-1.133 1.908-1.718 2.95a90.85 90.85 0 0 0-1.739 3.203h6.367l-.39 1.015h-6.504a94.033 94.033 0 0 0-1.66 3.496 61.81 61.81 0 0 0-1.348 3.32 26.14 26.14 0 0 0-.918 2.97c-.221.911-.332 1.705-.332 2.382 0 .847.195 1.459.586 1.836.391.365.872.547 1.445.547.508 0 1.029-.15 1.563-.45a9.02 9.02 0 0 0 1.562-1.171 13.746 13.746 0 0 0 1.465-1.543c.469-.56.879-1.087 1.231-1.582.364-.495.664-.924.898-1.289.235-.378.378-.612.43-.703l.722.547c-.455.755-.97 1.556-1.543 2.402a17.515 17.515 0 0 1-1.914 2.363 10.586 10.586 0 0 1-2.265 1.797 5.266 5.266 0 0 1-2.656.703c-.586 0-1.101-.104-1.543-.312a3.203 3.203 0 0 1-1.094-.86c-.3-.377-.521-.82-.664-1.328a5.63 5.63 0 0 1-.235-1.66c0-.39.066-.944.196-1.66.117-.716.325-1.563.625-2.539.299-.99.696-2.096 1.191-3.32a41.462 41.462 0 0 1 1.914-3.946h-3.242l.391-1.015h3.418zm8.183 11.66a5.765 5.765 0 0 0-.078.937c0 .47.065.918.195 1.348.144.417.345.788.606 1.113.273.313.605.56.996.742.404.183.859.274 1.367.274 1.706 0 3.353-.58 4.942-1.738 1.588-1.16 3.17-2.995 4.746-5.508l.664.586c-.86 1.432-1.732 2.643-2.617 3.633-.886.976-1.771 1.77-2.657 2.382-.872.612-1.732 1.055-2.578 1.328-.846.274-1.654.41-2.422.41a7.33 7.33 0 0 1-1.777-.234 5.358 5.358 0 0 1-1.738-.78 4.273 4.273 0 0 1-1.289-1.466c-.352-.612-.528-1.373-.528-2.285a7.9 7.9 0 0 1 .508-2.812c.326-.912.755-1.758 1.289-2.54a12.482 12.482 0 0 1 1.836-2.128 14.772 14.772 0 0 1 2.09-1.66 10.855 10.855 0 0 1 2.09-1.055c.677-.26 1.276-.39 1.797-.39.338 0 .683.051 1.035.155.351.104.664.267.937.489.287.221.515.514.684.879.182.364.273.8.273 1.308 0 .69-.162 1.341-.488 1.953a6.633 6.633 0 0 1-1.27 1.68c-.533.508-1.152.97-1.855 1.387-.703.403-1.439.748-2.207 1.035-.768.286-1.543.514-2.324.683-.782.17-1.524.26-2.227.274zm.156-.84a10.588 10.588 0 0 0 2.461-.547 11.24 11.24 0 0 0 2.11-.996c.638-.404 1.204-.84 1.699-1.309a8.965 8.965 0 0 0 1.269-1.425c.339-.482.599-.944.782-1.387.182-.443.273-.84.273-1.191 0-.352-.097-.632-.293-.84a.85.85 0 0 0-.664-.313c-.573 0-1.217.209-1.933.625-.717.404-1.433.97-2.149 1.7a15.785 15.785 0 0 0-2.031 2.538 14.958 14.958 0 0 0-1.524 3.145zm28.926-4.844c0 .56-.097 1.133-.293 1.719a13.03 13.03 0 0 1-.742 1.738c-.299.573-.618 1.14-.957 1.7-.339.56-.658 1.1-.957 1.62-.299.521-.547 1.023-.742 1.505-.196.468-.293.898-.293 1.289 0 .3.065.5.195.605.13.104.274.156.43.156.495 0 1.048-.24 1.66-.722.612-.495 1.23-1.114 1.855-1.856a34.84 34.84 0 0 0 1.895-2.422c.625-.872 1.191-1.699 1.699-2.48l.703.547c-.104.156-.293.468-.566.937-.274.456-.612.983-1.016 1.582a38.46 38.46 0 0 1-1.367 1.856 16.162 16.162 0 0 1-1.601 1.777 9.721 9.721 0 0 1-1.778 1.328c-.599.352-1.204.528-1.816.528-.352 0-.671-.06-.957-.176a2.222 2.222 0 0 1-.742-.489 2.453 2.453 0 0 1-.469-.722 2.354 2.354 0 0 1-.176-.899c0-.507.111-1.054.332-1.64a16.47 16.47 0 0 1 .859-1.836c.339-.625.71-1.25 1.114-1.875.403-.638.774-1.244 1.113-1.817.339-.572.619-1.1.84-1.582.234-.494.351-.918.351-1.27 0-.403-.11-.741-.332-1.015-.208-.273-.507-.41-.898-.41-.417 0-.898.176-1.445.527-.547.339-1.159.84-1.836 1.504a32.282 32.282 0 0 0-2.227 2.461 103.58 103.58 0 0 0-2.597 3.301 209.54 209.54 0 0 1-1.563 2.07c-.221.287-.443.58-.664.88l-.664.898c-.221.286-.43.56-.625.82-.195.273-.371.508-.527.703L154.926 36l2.285-3.145c.325-.442.657-.917.996-1.425.339-.508.671-1.029.996-1.563.339-.547.658-1.094.957-1.64.3-.547.58-1.081.84-1.602.378-.781.638-1.426.781-1.934.143-.52.215-.937.215-1.25 0-.351-.065-.579-.195-.683-.13-.117-.313-.176-.547-.176-.247 0-.534.13-.859.39a6.89 6.89 0 0 0-.977.977c-.339.39-.684.84-1.035 1.348-.339.495-.664.99-.977 1.484-.312.495-.605.964-.879 1.407-.273.442-.501.8-.683 1.074l-.703-.547a294.162 294.162 0 0 0 1.797-2.852 25.022 25.022 0 0 1 1.562-2.246c.508-.625.996-1.107 1.465-1.445.482-.352.989-.527 1.523-.527.287 0 .56.058.821.175.273.117.507.293.703.528.208.221.371.494.488.82.117.326.176.703.176 1.133 0 .338-.039.69-.117 1.055a15.425 15.425 0 0 1 1.601-1.387 9.597 9.597 0 0 1 1.367-.86 5.367 5.367 0 0 1 1.153-.468c.351-.091.67-.137.957-.137.247 0 .534.045.859.137.326.09.632.26.918.507.287.248.527.593.723 1.036.208.43.312.99.312 1.68z" fill="#fff"></path></svg>