<?xml version="1.0" encoding="UTF-8" standalone="no"?>
<!DOCTYPE svg PUBLIC "-//W3C//DTD SVG 1.1//EN" "http://www.w3.org/Graphics/SVG/1.1/DTD/svg11.dtd">
<svg width="100%" height="100%" viewBox="0 0 250 190" version="1.1" xmlns="http://www.w3.org/2000/svg" xmlns:xlink="http://www.w3.org/1999/xlink" xml:space="preserve" xmlns:serif="http://www.serif.com/" style="fill-rule:evenodd;clip-rule:evenodd;stroke-linejoin:round;stroke-miterlimit:2;">
    <g transform="matrix(4.02407,0,0,4.02407,81.532,149.913)">
        <path d="M0,2.968L0,0.64L0.73,2.764L1.239,2.764L1.983,0.67L1.983,2.968L2.567,2.968L2.567,-0.076L1.831,-0.076L1.075,2.065L0.34,-0.076L-0.498,-0.076L-0.498,2.968L0,2.968ZM4.086,2.968L4.402,2.156L5.663,2.156L5.979,2.968L6.63,2.968L5.445,-0.076L4.81,-0.076L3.625,2.968L4.086,2.968ZM5.033,0.537L5.505,1.75L4.56,1.75L5.033,0.537ZM8.2,2.968L8.2,0.888L9.598,2.968L10.166,2.968L10.166,-0.076L9.658,-0.076L9.658,2.003L8.25,-0.076L7.692,-0.076L7.692,2.968L8.2,2.968ZM11.575,1.787C11.575,2.14 11.628,2.396 11.734,2.558C11.839,2.719 11.983,2.84 12.164,2.922C12.345,3.003 12.561,3.044 12.814,3.044C13.07,3.044 13.282,3 13.449,2.913C13.617,2.825 13.744,2.704 13.833,2.551C13.921,2.399 13.966,2.146 13.966,1.793L13.966,-0.076L13.414,-0.076L13.414,1.836C13.414,2.146 13.361,2.355 13.255,2.464C13.149,2.572 13.006,2.626 12.826,2.626C12.644,2.626 12.495,2.572 12.381,2.462C12.266,2.352 12.209,2.128 12.209,1.791L12.209,-0.076L11.575,-0.076L11.575,1.787ZM16.009,2.968L16.009,1.687L17.044,1.687L17.044,1.267L16.009,1.267L16.009,0.343L17.272,0.343L17.272,-0.076L15.376,-0.076L15.376,2.968L16.009,2.968ZM18.381,2.968L18.698,2.156L19.958,2.156L20.274,2.968L20.925,2.968L19.741,-0.076L19.106,-0.076L17.92,2.968L18.381,2.968ZM19.328,0.537L19.801,1.75L18.856,1.75L19.328,0.537ZM22.655,2.968L22.655,1.471L23.773,2.968L24.557,2.968L23.283,1.286L24.302,-0.076L23.783,-0.076L22.655,1.401L22.655,-0.076L22.046,-0.076L22.046,2.968L22.655,2.968ZM27.133,2.968L27.133,0.343L28.223,0.343L28.223,-0.076L25.409,-0.076L25.409,0.343L26.499,0.343L26.499,2.968L27.133,2.968ZM29.33,1.787C29.33,2.14 29.383,2.396 29.489,2.558C29.594,2.719 29.737,2.84 29.918,2.922C30.099,3.003 30.316,3.044 30.568,3.044C30.825,3.044 31.037,3 31.204,2.913C31.371,2.825 31.499,2.704 31.588,2.551C31.676,2.399 31.72,2.146 31.72,1.793L31.72,-0.076L31.169,-0.076L31.169,1.836C31.169,2.146 31.116,2.355 31.01,2.464C30.903,2.572 30.76,2.626 30.581,2.626C30.398,2.626 30.25,2.572 30.135,2.462C30.021,2.352 29.964,2.128 29.964,1.791L29.964,-0.076L29.33,-0.076L29.33,1.787ZM33.727,2.968L33.727,1.724L34.075,1.724L34.832,2.968L35.604,2.968L34.607,1.547C34.795,1.463 34.941,1.342 35.044,1.184C35.146,1.025 35.198,0.857 35.198,0.679C35.198,0.529 35.163,0.395 35.092,0.277C35.021,0.158 34.925,0.07 34.803,0.011C34.681,-0.047 34.503,-0.076 34.27,-0.076L33.131,-0.076L33.131,2.968L33.727,2.968ZM33.727,0.341L33.948,0.341C34.197,0.341 34.362,0.378 34.443,0.451C34.524,0.525 34.564,0.624 34.564,0.749C34.564,0.893 34.514,1.021 34.415,1.135C34.315,1.249 34.134,1.306 33.873,1.306L33.727,1.306L33.727,0.341Z" style="fill:white;fill-rule:nonzero;"/>
    </g>
    <g transform="matrix(4.02407,0,0,4.02407,82.0785,168.106)">
        <path d="M0,3.044L0,1.656L1.259,1.656L1.259,3.044L1.892,3.044L1.892,0L1.259,0L1.259,1.236L0,1.236L0,0L-0.634,0L-0.634,3.044L0,3.044ZM5.366,3.044L5.366,2.612L3.953,2.612L3.953,1.686L5.041,1.686L5.041,1.267L3.953,1.267L3.953,0.419L5.27,0.419L5.27,0L3.32,0L3.32,3.044L5.366,3.044ZM7.157,0L6.523,0L6.523,3.044L7.157,3.044L7.157,0ZM9.839,3.044C10.207,3.044 10.496,2.975 10.707,2.836C10.919,2.698 11.079,2.509 11.19,2.271C11.3,2.032 11.355,1.761 11.355,1.458C11.355,1.148 11.297,0.884 11.182,0.665C11.066,0.446 10.91,0.281 10.715,0.169C10.519,0.056 10.246,0 9.895,0L8.585,0L8.585,3.044L9.839,3.044ZM9.218,0.417L9.601,0.417C9.912,0.417 10.133,0.46 10.264,0.546C10.395,0.632 10.498,0.757 10.572,0.923C10.646,1.089 10.683,1.28 10.683,1.495C10.683,1.72 10.645,1.924 10.569,2.107C10.492,2.29 10.389,2.42 10.258,2.497C10.127,2.574 9.938,2.612 9.691,2.612L9.218,2.612L9.218,0.417ZM14.66,3.044L14.66,2.612L13.247,2.612L13.247,1.686L14.335,1.686L14.335,1.267L13.247,1.267L13.247,0.419L14.563,0.419L14.563,0L12.613,0L12.613,3.044L14.66,3.044ZM17.808,3.044L17.808,2.612L16.453,2.612L16.453,0L15.819,0L15.819,3.044L17.808,3.044ZM20.067,3.044C20.322,3.044 20.51,3.012 20.633,2.948C20.756,2.885 20.852,2.793 20.922,2.675C20.993,2.556 21.028,2.428 21.028,2.291C21.028,2.165 20.998,2.047 20.938,1.937C20.879,1.828 20.791,1.733 20.676,1.653C20.56,1.574 20.393,1.507 20.176,1.454C20.449,1.367 20.639,1.255 20.745,1.116C20.851,0.976 20.904,0.83 20.904,0.677C20.904,0.554 20.871,0.439 20.803,0.33C20.736,0.221 20.642,0.138 20.523,0.083C20.404,0.027 20.22,0 19.972,0L18.944,0L18.944,3.044L20.067,3.044ZM19.553,0.417L19.666,0.417C19.866,0.417 20,0.432 20.07,0.461L20.218,0.586L20.26,0.775C20.26,0.912 20.213,1.029 20.118,1.124C20.023,1.219 19.88,1.267 19.688,1.267L19.553,1.267L19.553,0.417ZM19.553,1.674L19.662,1.674C19.866,1.674 20.034,1.727 20.166,1.831C20.299,1.936 20.365,2.064 20.365,2.215L20.305,2.429L20.124,2.569C20.045,2.598 19.895,2.612 19.674,2.612L19.553,2.612L19.553,1.674ZM24.33,3.044L24.33,2.612L22.917,2.612L22.917,1.686L24.005,1.686L24.005,1.267L22.917,1.267L22.917,0.419L24.234,0.419L24.234,0L22.284,0L22.284,3.044L24.33,3.044ZM26.086,3.044L26.086,1.8L26.434,1.8L27.191,3.044L27.963,3.044L26.966,1.623C27.154,1.539 27.299,1.418 27.402,1.26C27.505,1.101 27.557,0.933 27.557,0.755C27.557,0.605 27.521,0.471 27.451,0.353C27.38,0.234 27.284,0.146 27.162,0.087C27.04,0.029 26.862,0 26.629,0L25.489,0L25.489,3.044L26.086,3.044ZM26.086,0.417L26.306,0.417C26.555,0.417 26.72,0.454 26.801,0.527C26.882,0.601 26.923,0.7 26.923,0.825C26.923,0.969 26.873,1.097 26.773,1.211C26.674,1.325 26.493,1.382 26.232,1.382L26.086,1.382L26.086,0.417ZM31.416,1.662L30.782,1.662L30.782,2.663C30.685,2.684 30.6,2.694 30.527,2.694C30.191,2.694 29.931,2.589 29.746,2.377C29.561,2.166 29.468,1.882 29.468,1.524C29.468,1.196 29.546,0.917 29.704,0.687C29.861,0.456 30.117,0.341 30.474,0.341C30.583,0.341 30.699,0.35 30.819,0.368C30.94,0.386 31.138,0.442 31.414,0.537L31.414,0.041C31.086,-0.037 30.756,-0.076 30.422,-0.076C30.027,-0.076 29.714,-0.008 29.483,0.13C29.252,0.268 29.08,0.458 28.966,0.7C28.852,0.942 28.795,1.215 28.795,1.518C28.795,1.981 28.925,2.364 29.184,2.667C29.443,2.969 29.858,3.12 30.429,3.12C30.567,3.12 30.698,3.113 30.822,3.098C30.947,3.084 31.144,3.042 31.416,2.972L31.416,1.662Z" style="fill:white;fill-rule:nonzero;"/>
    </g>
    <g transform="matrix(4.02407,0,0,4.02407,42.8281,138.89)">
        <path d="M0,-6.088C0,-8.422 1.648,-9.989 1.648,-13.237C1.648,-16.567 -0.931,-16.813 -3.297,-16.813C-5.795,-16.813 -6.35,-16.747 -7.787,-16.502C-8.113,-16.453 -10.643,-15.735 -10.643,-14.952C-10.643,-14.544 -9.925,-13.956 -9.533,-13.956C-8.456,-13.956 -6.529,-14.478 -6.529,-14.56C-6.529,-14.56 -4.032,-5.778 -4.032,0.001C-4.032,1.013 -3.608,1.552 -3.134,1.552C-2.906,1.552 -2.84,1.454 -2.84,1.274L-2.857,1.029C-3.183,-3.052 -2.89,-6.023 -5.681,-14.56C-5.273,-14.691 -3.069,-15.033 -1.78,-15.033C-0.735,-15.033 0.604,-14.902 0.604,-13.107C0.604,-10.397 -1.012,-8.553 -1.012,-6.268C-1.012,-3.672 -0.816,-3.28 1.012,-0.424C2.367,1.715 6.17,5.534 6.17,7.608C6.17,8.473 4.505,9.811 2.432,9.811C1.926,9.811 1.877,9.844 1.877,10.349C1.877,10.693 2.089,10.725 2.432,10.725C4.162,10.725 7.264,9.599 7.264,7.591C7.264,5.469 4.358,2.433 2.497,0.05C0.408,-2.611 0,-3.427 0,-6.088" style="fill:white;fill-rule:nonzero;"/>
    </g>
    <g transform="matrix(4.02407,0,0,4.02407,248.358,120.301)">
        <path d="M0,3.575C-0.115,3.575 -0.506,3.885 -1.355,3.885C-3.493,3.885 -3.575,-0.098 -4.995,-0.098C-5.763,-0.098 -6.856,2.742 -8.08,2.742C-8.619,2.742 -9.19,-0.277 -10.627,-0.277C-11.165,-0.277 -11.622,0.604 -12.83,0.604C-13.32,0.604 -14.218,-0.326 -14.316,-0.506C-14.512,-0.865 -14.756,-0.979 -14.952,-0.979C-15.295,-0.979 -15.573,-0.587 -15.573,-0.245C-15.573,-0.065 -15.491,0.098 -15.279,0.18C-14.512,0.49 -14.447,1.616 -14.447,2.187C-14.447,2.889 -14.61,3.787 -15.295,3.787C-16.193,3.787 -16.536,1.665 -16.536,1.616C-16.536,1.469 -16.552,1.29 -16.552,1.127C-16.552,0.572 -16.095,0.311 -16.095,-0.179C-16.095,-0.326 -16.21,-0.359 -16.323,-0.359C-17.205,-0.359 -17.401,0.376 -17.401,1.225C-17.401,1.519 -17.368,1.78 -17.335,1.943C-17.222,2.694 -16.667,4.554 -15.344,4.554C-13.957,4.554 -13.581,3.102 -13.581,1.992C-13.581,1.567 -13.761,1.241 -13.793,1.029C-13.304,1.371 -13.108,1.453 -12.586,1.453C-11.77,1.453 -11.133,0.751 -10.79,0.751C-9.778,0.751 -9.174,3.738 -8.097,3.738C-6.921,3.738 -5.517,1.225 -5.126,1.225C-4.522,1.225 -4.277,4.554 -1.551,4.554C-0.424,4.554 0.408,4.196 0.408,4.033C0.408,3.869 0.196,3.575 0,3.575" style="fill:white;fill-rule:nonzero;"/>
    </g>
    <g transform="matrix(4.02407,0,0,4.02407,162.834,101.055)">
        <path d="M0,3.657C-1.6,3.657 -2.383,5.191 -2.383,6.318C-2.383,6.84 -2.302,7.248 -1.926,7.248C-0.702,7.248 -1.698,4.391 -0.032,4.391C0.719,4.391 1.225,5.273 1.225,6.334C1.225,8.146 0.016,8.962 -1.028,8.962C-2.759,8.962 -3.754,6.513 -3.754,5.599C-3.427,4.946 -1.649,0.376 -1.649,-3.656C-1.649,-4.864 -1.942,-6.056 -2.873,-6.056C-4.848,-6.056 -4.864,-1.534 -4.864,1.274C-4.864,2.776 -4.668,4.261 -4.668,5.094C-4.75,5.632 -5.371,6.595 -6.121,7.395C-6.484,7.772 -6.963,8.162 -7.432,8.404C-7.629,8.491 -8.008,8.668 -8.651,8.668C-10.789,8.668 -10.871,4.685 -12.291,4.685C-13.058,4.685 -14.152,7.525 -15.376,7.525C-15.915,7.525 -16.486,4.506 -17.923,4.506C-18.461,4.506 -18.919,5.387 -20.126,5.387C-20.616,5.387 -21.514,4.457 -21.612,4.277C-21.808,3.918 -22.053,3.804 -22.248,3.804C-22.591,3.804 -22.869,4.196 -22.869,4.538C-22.869,4.718 -22.787,4.881 -22.575,4.963C-21.808,5.273 -21.743,6.399 -21.743,6.97C-21.743,7.672 -21.906,8.57 -22.591,8.57C-23.489,8.57 -23.832,6.448 -23.832,6.399C-23.832,6.252 -23.848,6.073 -23.848,5.91C-23.848,5.355 -23.391,5.094 -23.391,4.604C-23.391,4.457 -23.506,4.424 -23.62,4.424C-24.501,4.424 -24.697,5.159 -24.697,6.008C-24.697,6.302 -24.664,6.563 -24.632,6.726C-24.518,7.477 -23.963,9.337 -22.64,9.337C-21.253,9.337 -20.877,7.885 -20.877,6.775C-20.877,6.35 -21.057,6.024 -21.09,5.812C-20.6,6.154 -20.404,6.236 -19.882,6.236C-19.066,6.236 -18.429,5.534 -18.086,5.534C-17.074,5.534 -16.47,8.521 -15.393,8.521C-14.217,8.521 -12.814,6.008 -12.422,6.008C-11.818,6.008 -11.573,9.337 -8.847,9.337C-8.035,9.337 -7.382,9.151 -7.077,8.986C-6.748,8.847 -6.194,8.513 -5.648,8.015C-5.207,7.607 -4.766,7.02 -4.424,6.399C-4.032,7.754 -3.036,9.713 -0.979,9.713C0.522,9.713 2.09,8.538 2.09,6.302C2.09,4.963 1.29,3.657 0,3.657M-3.934,3.804C-3.983,3.804 -4.032,3.706 -4.032,3.592C-4.064,2.955 -4.081,2.351 -4.081,1.763C-4.081,-1.468 -3.885,-4.799 -2.954,-4.799C-2.759,-4.799 -2.53,-4.276 -2.53,-3.623C-2.53,-0.93 -3.754,3.804 -3.934,3.804" style="fill:white;fill-rule:nonzero;"/>
    </g>
    <g transform="matrix(4.02407,0,0,4.02407,58.5115,32.0344)">
        <path d="M0,13.377C0,13.373 -0.014,13.088 -0.014,12.629C-0.004,11.192 0.089,8.092 1.21,6.326C1.586,5.739 2.121,5.279 2.823,5.169C3.06,5.13 3.289,5.112 3.505,5.112C4.915,5.108 5.881,5.881 6.602,6.758C7.328,7.639 7.882,8.649 8.5,9.268C8.915,9.681 9.314,9.911 9.827,9.914C9.911,9.914 9.999,9.907 10.091,9.894C11.161,9.738 11.692,8.846 12.103,7.575C12.504,6.32 12.713,4.811 13.244,3.684C13.59,2.939 14.152,2.31 15.031,2.204C15.172,2.186 15.309,2.176 15.44,2.176C16.727,2.166 17.418,3.063 17.788,3.988C18.174,4.922 18.382,5.985 18.755,6.607C19.014,7.022 19.245,7.213 19.695,7.222L19.89,7.21C20.1,7.179 20.251,7.065 20.42,6.792C20.582,6.523 20.718,6.12 20.837,5.664C21.082,4.748 21.255,3.635 21.742,2.814C22.058,2.266 22.602,1.83 23.345,1.838C24.176,1.844 24.671,2.466 25.008,3.073C25.354,3.694 25.618,4.394 25.916,4.799C26.114,5.066 26.269,5.168 26.449,5.174C26.594,5.145 26.672,5.121 26.672,5.121L26.673,5.121L26.813,4.998C26.926,4.869 27.037,4.648 27.132,4.382C27.327,3.847 27.455,3.163 27.716,2.635C27.88,2.293 28.186,1.936 28.665,1.936C29.087,1.935 29.424,2.168 29.66,2.444C29.9,2.725 30.071,3.065 30.205,3.396C30.469,4.059 30.576,4.696 30.578,4.709L30.579,4.71C30.611,4.901 30.482,5.082 30.291,5.114C30.1,5.146 29.918,5.017 29.886,4.826C29.885,4.826 29.83,4.5 29.704,4.086C29.578,3.673 29.372,3.182 29.128,2.904C28.962,2.715 28.817,2.637 28.665,2.637C28.584,2.642 28.541,2.658 28.438,2.79C28.344,2.919 28.246,3.149 28.16,3.419C27.98,3.966 27.844,4.661 27.528,5.2C27.334,5.542 26.988,5.858 26.518,5.877C26.298,5.918 25.995,5.959 25.655,5.959C24.796,5.978 23.558,5.642 23.168,4.248C22.843,3.184 22.51,3.111 22.394,3.096C22.247,3.318 22.12,3.607 22.012,3.935C21.72,4.807 21.569,5.912 21.221,6.752C21.025,7.231 20.718,7.685 20.217,7.851L20.138,7.883C20.12,7.888 19.466,8.071 18.644,8.071C18.076,8.07 17.421,7.985 16.84,7.657C16.258,7.332 15.775,6.732 15.625,5.841C15.211,3.664 14.442,3.615 14.157,3.59L14.097,3.593C13.845,3.972 13.647,4.504 13.477,5.106C13.118,6.356 12.887,7.886 12.251,9.046C11.891,9.711 11.351,10.27 10.583,10.502L10.502,10.54C10.483,10.544 9.103,10.981 7.555,10.983C6.775,10.981 5.946,10.872 5.222,10.509C4.497,10.151 3.888,9.509 3.632,8.543C3.091,6.617 2.43,6.5 2.147,6.489C2.035,6.489 1.951,6.517 1.926,6.527L1.799,6.708C1.486,7.19 1.248,7.859 1.081,8.584C0.745,10.034 0.687,11.704 0.688,12.629C0.688,13.074 0.701,13.343 0.701,13.344C0.71,13.537 0.56,13.702 0.367,13.711L0.351,13.712C0.164,13.712 0.008,13.564 0,13.377M4.31,8.361C4.525,9.139 4.96,9.587 5.537,9.882C6.113,10.174 6.841,10.281 7.555,10.28C7.897,10.28 8.235,10.256 8.55,10.22C8.351,10.089 8.169,9.932 8.001,9.761C7.52,9.273 7.121,8.66 6.704,8.065C5.86,6.863 5.009,5.812 3.505,5.814C3.326,5.814 3.137,5.829 2.934,5.862L2.729,5.911C3.297,6.166 3.921,6.854 4.31,8.361M16.316,5.719C16.446,6.431 16.769,6.802 17.187,7.046C17.55,7.254 18.004,7.345 18.44,7.365L18.417,7.338C18.117,6.99 17.927,6.554 17.763,6.094C17.442,5.176 17.204,4.138 16.738,3.526C16.425,3.12 16.074,2.887 15.44,2.879C15.341,2.879 15.235,2.885 15.119,2.901C14.979,2.919 14.854,2.954 14.74,3.005C15.341,3.263 16.039,3.998 16.316,5.719M23.843,4.055C24.099,4.93 24.717,5.18 25.37,5.242C25.23,5.055 25.113,4.847 25.001,4.631C24.69,4.021 24.414,3.335 24.074,2.937C23.844,2.67 23.637,2.544 23.345,2.54C23.205,2.542 23.086,2.562 22.98,2.598C23.303,2.828 23.633,3.272 23.843,4.055M-3.556,6.271C-3.653,6.102 -3.596,5.887 -3.428,5.791C-3.405,5.78 4.975,0.923 14.46,-0.046C16.477,-0.252 18.331,-0.335 20.013,-0.335C27.604,-0.335 31.714,1.377 31.75,1.393C31.928,1.467 32.013,1.673 31.937,1.852C31.863,2.031 31.657,2.115 31.478,2.04C31.477,2.041 31.243,1.941 30.754,1.785C30.266,1.629 29.533,1.419 28.566,1.209C26.63,0.789 23.755,0.367 20.013,0.367C18.354,0.367 16.524,0.449 14.531,0.653C7.561,1.36 1.127,4.242 -1.642,5.637C-2.565,6.102 -3.075,6.397 -3.076,6.399L-3.251,6.446C-3.373,6.446 -3.491,6.383 -3.556,6.271" style="fill:white;fill-rule:nonzero;"/>
    </g>
    <g transform="matrix(4.02407,0,0,4.02407,218.153,16.78)">
        <path d="M0,8.271L-6.36,7.578C-6.513,7.561 -6.628,7.431 -6.626,7.277L-6.528,0.618C-6.879,0.644 -7.434,0.687 -7.768,0.715L-7.793,2.04C-7.795,2.202 -7.928,2.333 -8.09,2.333L-9.639,2.337C-9.803,2.337 -9.937,2.205 -9.938,2.041L-9.948,0.79L-10.939,0.859L-10.943,3.095C-10.944,3.261 -11.078,3.394 -11.242,3.394C-11.408,3.393 -11.541,3.259 -11.54,3.094L-11.535,0.581C-11.534,0.424 -11.414,0.294 -11.257,0.283L-9.672,0.173L-9.449,0.252L-9.353,0.469L-9.344,1.74L-8.384,1.737L-8.36,0.437C-8.358,0.288 -8.245,0.164 -8.098,0.147C-7.829,0.115 -6.251,-0.002 -6.247,-0.002L-6.02,0.078L-5.926,0.3L-6.025,7.014L0.065,7.678C0.229,7.696 0.347,7.844 0.329,8.007C0.312,8.16 0.183,8.273 0.033,8.273L0,8.271Z" style="fill:white;fill-rule:nonzero;"/>
    </g>
    <g transform="matrix(4.02407,0,0,4.02407,138.333,0.571815)">
        <path d="M0,5.353C-0.001,5.353 -0.186,5.011 -0.465,4.665C-0.738,4.312 -1.121,4.001 -1.349,4.003C-1.714,3.979 -2.332,4.018 -2.905,3.941C-3.462,3.868 -4.085,3.665 -4.267,3.025C-4.394,2.549 -4.427,2.222 -4.477,2.092C-4.541,1.988 -4.445,2.028 -4.71,1.977C-5.265,1.931 -9.051,1.929 -9.056,1.93L-9.28,1.818L-9.847,1.063L-13.699,1.113L-13.923,1.743C-13.96,1.847 -14.054,1.919 -14.163,1.929L-16.816,2.155L-17.023,2.088L-17.12,1.892L-17.204,0.427L-18.969,0.476L-19.082,4.7C-19.086,4.836 -19.186,4.95 -19.321,4.97L-22.614,5.468C-22.768,5.491 -22.911,5.385 -22.934,5.232C-22.957,5.078 -22.852,4.935 -22.699,4.912L-19.638,4.45L-19.523,0.195C-19.519,0.045 -19.399,-0.074 -19.25,-0.078L-16.946,-0.142C-16.795,-0.146 -16.667,-0.028 -16.658,0.124L-16.576,1.571L-14.392,1.385L-14.163,0.741C-14.123,0.631 -14.018,0.557 -13.901,0.554L-9.712,0.5L-9.484,0.612L-8.915,1.369C-8.227,1.369 -5.221,1.373 -4.664,1.417C-4.336,1.416 -4.018,1.625 -3.947,1.905C-3.86,2.163 -3.845,2.438 -3.725,2.879C-3.66,3.155 -3.346,3.313 -2.83,3.384C-2.329,3.453 -1.738,3.418 -1.314,3.443C-0.753,3.493 -0.347,3.93 -0.027,4.313C0.286,4.703 0.488,5.076 0.493,5.084L0.494,5.084C0.568,5.221 0.518,5.391 0.381,5.466L0.247,5.499C0.147,5.499 0.051,5.447 0,5.353" style="fill:white;fill-rule:nonzero;"/>
    </g>
</svg>
