<?xml version="1.0" encoding="utf-8"?>
<!-- Generator: Adobe Illustrator 23.0.3, SVG Export Plug-In . SVG Version: 6.00 Build 0)  -->
<svg version="1.1" id="Ebene_1" xmlns="http://www.w3.org/2000/svg" xmlns:xlink="http://www.w3.org/1999/xlink" x="0px" y="0px"
	 viewBox="0 0 232.44 232.44" style="enable-background:new 0 0 232.44 232.44;" xml:space="preserve">
<style type="text/css">
	.st0{fill-rule:evenodd;clip-rule:evenodd;fill:#FFFFFF;}
	.st1{fill:#006600;}
	.st2{fill-rule:evenodd;clip-rule:evenodd;fill:#006600;}
	.st3{fill-rule:evenodd;clip-rule:evenodd;fill:#FCC73B;}
</style>
<g>
	<g>
		
			<ellipse transform="matrix(0.7071 -0.7071 0.7071 0.7071 -47.8673 116.1074)" class="st0" cx="116.22" cy="115.83" rx="113.39" ry="113.39"/>
		<path class="st1" d="M116.22,232.06C52.14,232.06,0,179.92,0,115.83S52.14-0.39,116.22-0.39s116.22,52.14,116.22,116.22
			S180.3,232.06,116.22,232.06z M116.22,5.28C55.26,5.28,5.67,54.88,5.67,115.83s49.59,110.55,110.55,110.55
			s110.55-49.59,110.55-110.55S177.18,5.28,116.22,5.28z"/>
	</g>
	<g>
		<path class="st2" d="M212.13,106.74c-6.96-12.56-20.76-13.74-20.95-13.74c-21.63-1.8-31.14,4.29-31.64,4.54
			c-14.98,6.53-27.35,16.53-35.87,29.03c-0.56,0.81-0.75,1.8-0.56,2.74c0.19,0.93,0.75,1.99,1.68,2.3c1.24,0.44,2.49,0.56,5.1-1.12
			c30.4-25.61,51.41-22.38,36.61,7.46c-1.93,2.67-5.78,6.4-8.45,8.21c-8.45,6.09-18.28,9.01-19.71,9.39l0,0l-0.12,0.06
			c-1.24,0.37-2.11,1.18-2.42,2.18c-0.31,0.87-0.12,1.86,0.5,2.67c0.12,0.19,0.31,0.37,0.5,0.56c1.18,1.12,2.92,1.68,4.66,1.62
			c0.56,0,1.18-0.12,1.68-0.31c11.06-4.04,20.95-10.01,29.03-17.53l0,0l0,0c0.93-0.81,2.18-0.87,2.86-0.12
			c0.62,0.75,0.37,1.99-0.56,2.8c-0.12,0.12-6.96,5.91-11.44,8.64c-8.7,5.66-20.14,9.01-21.57,9.32l0,0l-0.12,0.06
			c-1.24,0.31-2.18,1.06-2.55,2.05c-0.31,0.87-0.19,1.8,0.37,2.74c0.12,0.19,0.31,0.43,0.5,0.62c1.12,1.18,2.86,1.86,4.54,1.86
			c0.56,0,1.18-0.06,1.68-0.25c16.66-4.91,32.88-18.83,33.07-18.96c0.93-0.81,2.18-0.87,2.86-0.12c0.62,0.75,0.37,1.99-0.56,2.8
			c-0.19,0.19-6.96,6.34-11.38,9.26c-8.45,6.03-19.77,9.82-21.13,10.19l0,0l-0.12,0.06c-1.24,0.37-2.11,1.18-2.42,2.18
			c-0.31,0.87-0.12,1.86,0.5,2.67c0.12,0.19,0.31,0.37,0.5,0.56c1.12,1.12,2.92,1.74,4.66,1.68c0.56,0,1.18-0.12,1.68-0.31
			c12.49-4.48,23.5-11.38,32.2-20.2c0,0,0.12-0.12,0.25-0.25c0.93-0.81,2.18-0.87,2.86-0.12c0.62,0.75,0.37,1.99-0.56,2.8
			c0,0-5.47,5.41-8.89,8.02c-7.89,6.4-19.15,11.13-20.82,11.62v0.06c-0.99,0.37-1.68,1.06-1.93,1.86c-0.19,0.68,0,1.43,0.56,2.11
			c0.12,0.19,0.31,0.31,0.44,0.44c1.43,1.24,3.98,1.62,5.72,0.81c13.36-5.78,24.74-14.36,33.07-24.93l0.06-0.06
			C225.81,131.73,212.44,107.3,212.13,106.74z"/>
		<path class="st2" d="M20.31,106.74c6.96-12.49,20.76-13.68,20.95-13.68c21.63-1.8,31.14,4.29,31.64,4.54
			c14.98,6.53,27.35,16.53,35.87,29.03c0.56,0.81,0.75,1.8,0.56,2.74c-0.19,0.93-0.75,1.99-1.68,2.3c-1.24,0.43-2.49,0.56-5.1-1.12
			c-30.4-25.61-51.41-22.38-36.61,7.46c1.93,2.67,5.78,6.4,8.45,8.21c8.45,6.09,18.28,9.01,19.71,9.39l0,0l0.12,0.06
			c1.24,0.37,2.11,1.18,2.42,2.18c0.31,0.87,0.12,1.86-0.5,2.67c-0.12,0.19-0.31,0.37-0.5,0.56c-1.18,1.12-2.92,1.68-4.66,1.62
			c-0.56,0-1.18-0.12-1.68-0.31c-11.06-4.04-20.95-10.01-29.03-17.53l0,0l0,0c-0.93-0.81-2.18-0.87-2.86-0.12
			c-0.62,0.75-0.37,1.99,0.56,2.8c0.12,0.12,6.96,5.91,11.44,8.64c8.7,5.66,20.14,9.01,21.57,9.32l0,0l0.12,0.06
			c1.24,0.31,2.18,1.06,2.55,2.05c0.31,0.87,0.19,1.8-0.37,2.74c-0.12,0.19-0.31,0.44-0.5,0.62c-1.12,1.18-2.86,1.86-4.54,1.86
			c-0.56,0-1.18-0.06-1.68-0.25c-16.66-4.91-32.88-18.83-33.07-18.96c-0.93-0.81-2.18-0.87-2.86-0.12c-0.62,0.75-0.37,1.99,0.56,2.8
			c0.19,0.19,6.96,6.34,11.38,9.26c8.45,6.03,19.77,9.82,21.13,10.19l0,0l0.12,0.06c1.24,0.37,2.11,1.18,2.42,2.18
			c0.31,0.87,0.12,1.86-0.5,2.67c-0.12,0.19-0.31,0.37-0.5,0.56c-1.12,1.12-2.92,1.74-4.66,1.68c-0.56,0-1.18-0.12-1.68-0.31
			c-12.49-4.48-23.5-11.38-32.2-20.2c0,0-0.12-0.12-0.25-0.25c-0.93-0.81-2.18-0.87-2.86-0.12c-0.62,0.75-0.37,1.99,0.56,2.8
			c0,0,5.47,5.41,8.89,8.02c7.89,6.4,19.15,11.13,20.82,11.62v0.06c0.99,0.37,1.68,1.06,1.93,1.86c0.19,0.68,0,1.43-0.56,2.11
			c-0.12,0.19-0.31,0.31-0.43,0.43c-1.43,1.24-3.98,1.62-5.72,0.81c-13.36-5.78-24.74-14.36-33.07-24.93l-0.06-0.06
			C6.63,131.73,20,107.3,20.31,106.74z"/>
		<g>
			<polygon class="st3" points="101.18,139.44 103.04,143.23 107.27,143.85 104.22,146.84 104.97,151.06 101.18,149.08 
				97.39,151.06 98.13,146.84 95.02,143.85 99.25,143.23 			"/>
			<polygon class="st3" points="116.22,139.44 118.15,143.23 122.37,143.85 119.27,146.84 120.01,151.06 116.22,149.08 
				112.43,151.06 113.17,146.84 110.13,143.85 114.36,143.23 			"/>
			<polygon class="st3" points="131.33,139.44 133.19,143.23 137.42,143.85 134.37,146.84 135.12,151.06 131.33,149.08 
				127.53,151.06 128.22,146.84 125.17,143.85 129.4,143.23 			"/>
		</g>
		<g>
			<path class="st2" d="M45.23,62.86c0,1.18-0.43,2.11-1.31,2.74c-0.87,0.62-1.99,0.99-3.42,0.99c-1.55,0-2.8-0.19-3.67-0.62v-1.49
				c0.56,0.25,1.12,0.44,1.8,0.56c0.68,0.12,1.31,0.19,1.93,0.19c1.06,0,1.8-0.19,2.36-0.56c0.56-0.37,0.81-0.93,0.81-1.62
				c0-0.44-0.06-0.87-0.25-1.12s-0.5-0.56-0.93-0.81c-0.44-0.25-1.12-0.56-1.99-0.87c-1.24-0.44-2.11-0.99-2.67-1.55
				c-0.56-0.56-0.81-1.43-0.81-2.36c0-1.06,0.37-1.86,1.18-2.42c0.81-0.56,1.68-0.99,2.98-0.99c1.31,0,2.55,0.25,3.67,0.75
				l-0.5,1.37c-1.12-0.43-2.18-0.68-3.23-0.68c-0.81,0-1.43,0.19-1.93,0.5c-0.5,0.31-0.68,0.87-0.68,1.49
				c0,0.44,0.06,0.87,0.25,1.12c0.19,0.25,0.44,0.56,0.87,0.81c0.44,0.25,0.99,0.5,1.86,0.81c1.37,0.5,2.36,1.06,2.86,1.62
				C44.92,61.24,45.23,61.93,45.23,62.86z"/>
			<polygon class="st2" points="52.07,66.4 50.52,66.4 50.52,54.47 46.29,54.47 46.29,53.1 56.3,53.1 56.3,54.47 52.07,54.47 			"/>
			<path class="st2" d="M57.85,65.47c0-0.44,0.06-0.68,0.25-0.93c0.19-0.25,0.44-0.31,0.81-0.31c0.37,0,0.62,0.12,0.81,0.31
				c0.19,0.19,0.31,0.5,0.31,0.93c0,0.37-0.12,0.68-0.31,0.93c-0.19,0.25-0.5,0.31-0.81,0.31c-0.31,0-0.56-0.12-0.75-0.31
				C57.98,66.22,57.85,65.9,57.85,65.47z"/>
			<path class="st2" d="M66.12,69.88c-0.56,0-0.99-0.06-1.37-0.25v-1.31c0.44,0.12,0.87,0.19,1.37,0.19c0.62,0,1.06-0.19,1.37-0.56
				c0.31-0.37,0.5-0.87,0.5-1.55V53.1h1.55v13.18c0,1.18-0.31,2.05-0.87,2.67C68.11,69.57,67.24,69.88,66.12,69.88z"/>
			<path class="st2" d="M84.64,59.75c0,2.11-0.56,3.79-1.62,5.03c-1.05,1.24-2.59,1.8-4.51,1.8v-1.37h0.03
				c1.49,0,2.61-0.44,3.36-1.37c0.75-0.93,1.12-2.3,1.12-4.1c0-1.8-0.37-3.17-1.12-4.1c-0.75-0.93-1.86-1.37-3.36-1.37h-0.03v-1.37
				h0.03c1.93,0,3.42,0.62,4.48,1.8C84.08,55.9,84.64,57.58,84.64,59.75z M78.52,66.59h-0.03c-1.99,0-3.48-0.62-4.54-1.8
				c-1.06-1.18-1.62-2.92-1.62-5.1c0-2.18,0.56-3.85,1.62-5.03c1.05-1.18,2.59-1.74,4.57-1.74v1.37c-1.48,0.01-2.58,0.44-3.33,1.37
				c-0.75,0.93-1.18,2.3-1.18,4.1c0,1.8,0.37,3.17,1.18,4.1c0.8,0.93,1.85,1.36,3.33,1.37V66.59z"/>
			<path class="st2" d="M95.09,62.86c0,1.18-0.43,2.11-1.31,2.74c-0.87,0.62-1.99,0.99-3.42,0.99c-1.55,0-2.8-0.19-3.67-0.62v-1.49
				c0.56,0.25,1.12,0.44,1.8,0.56c0.68,0.12,1.31,0.19,1.93,0.19c1.06,0,1.8-0.19,2.36-0.56c0.56-0.37,0.81-0.93,0.81-1.62
				c0-0.44-0.06-0.87-0.25-1.12s-0.5-0.56-0.93-0.81c-0.44-0.25-1.12-0.56-1.99-0.87c-1.24-0.44-2.11-0.99-2.67-1.55
				c-0.56-0.56-0.81-1.43-0.81-2.36c0-1.06,0.37-1.86,1.18-2.42c0.81-0.56,1.8-0.93,3.05-0.93c1.31,0,2.55,0.25,3.67,0.75l-0.5,1.37
				c-1.12-0.44-2.18-0.68-3.23-0.68c-0.81,0-1.43,0.19-1.93,0.5c-0.5,0.31-0.68,0.87-0.68,1.49c0,0.44,0.06,0.87,0.25,1.12
				s0.43,0.56,0.87,0.81c0.44,0.25,0.99,0.5,1.86,0.81c1.37,0.5,2.36,1.06,2.86,1.62C94.84,61.3,95.09,61.93,95.09,62.86z"/>
			<polygon class="st2" points="105.22,66.4 97.82,66.4 97.82,53.1 105.22,53.1 105.22,54.47 99.37,54.47 99.37,58.76 104.91,58.76 
				104.91,60.12 99.37,60.12 99.37,65.03 105.22,65.03 			"/>
			<path class="st2" d="M116.66,56.95c0,1.37-0.44,2.36-1.37,3.11c-0.73,0.58-1.68,0.94-2.89,1.06v-1.4c0.73-0.11,1.3-0.31,1.71-0.6
				c0.62-0.43,0.93-1.18,0.93-2.11c0-0.87-0.31-1.55-0.87-1.99c-0.41-0.32-1.01-0.5-1.77-0.58v-1.33
				C115.22,53.3,116.66,54.6,116.66,56.95z M112.4,61.13c-0.34,0.04-0.7,0.05-1.09,0.05h-1.55v5.22h-1.55V53.1h3.48
				c0.25,0,0.49,0.01,0.71,0.02v1.33c-0.28-0.03-0.58-0.04-0.9-0.04l-1.74,0v5.41h1.37c0.47,0,0.89-0.03,1.27-0.08V61.13z"/>
			<polygon class="st2" points="129.52,66.4 127.97,66.4 127.97,60.12 120.94,60.12 120.94,66.4 119.39,66.4 119.39,53.1 
				120.94,53.1 120.94,58.76 127.97,58.76 127.97,53.1 129.52,53.1 			"/>
			<polygon class="st2" points="148.11,66.4 146.55,66.4 146.55,60.12 139.53,60.12 139.53,66.4 137.98,66.4 137.98,53.1 
				139.53,53.1 139.53,58.76 146.55,58.76 146.55,53.1 148.11,53.1 			"/>
			<path class="st2" d="M163.34,59.75c0,2.11-0.56,3.79-1.62,5.03c-1.06,1.24-2.55,1.8-4.48,1.8l-0.03,0v-1.37h0.03
				c1.49,0,2.61-0.44,3.36-1.37c0.75-0.93,1.12-2.3,1.12-4.1c0-1.8-0.37-3.17-1.12-4.1c-0.75-0.93-1.86-1.37-3.36-1.37h-0.03v-1.43
				l0.03,0c1.93,0,3.42,0.62,4.48,1.8C162.78,55.83,163.34,57.58,163.34,59.75z M157.22,66.59c-1.97-0.01-3.46-0.63-4.51-1.8
				c-1.06-1.18-1.62-2.92-1.62-5.1c0-2.18,0.56-3.85,1.62-5.03c1.05-1.17,2.59-1.8,4.51-1.8v1.43c-1.48,0.01-2.58,0.44-3.33,1.37
				c-0.75,0.93-1.18,2.3-1.18,4.1c0,1.8,0.37,3.17,1.18,4.1c0.8,0.93,1.85,1.36,3.33,1.37V66.59z"/>
			<polygon class="st2" points="170.42,66.4 168.87,66.4 168.87,54.47 164.64,54.47 164.64,53.1 174.65,53.1 174.65,54.47 
				170.42,54.47 			"/>
			<polygon class="st2" points="184.04,66.4 176.64,66.4 176.64,53.1 184.04,53.1 184.04,54.47 178.19,54.47 178.19,58.76 
				183.73,58.76 183.73,60.12 178.19,60.12 178.19,65.03 184.04,65.03 			"/>
			<polygon class="st2" points="186.96,66.4 186.96,53.1 188.51,53.1 188.51,65.03 194.36,65.03 194.36,66.46 186.96,66.46 			"/>
		</g>
		<g>
			<polygon class="st2" points="87.07,87.79 85.51,87.79 85.51,81.51 78.55,81.51 78.55,87.79 77,87.79 77,74.48 78.55,74.48 
				78.55,80.14 85.58,80.14 85.58,74.48 87.13,74.48 87.13,87.79 			"/>
			<path class="st2" d="M96.64,87.79l-0.31-1.43l-0.06,0c-0.5,0.62-0.99,1.06-1.49,1.24c-0.28,0.11-0.6,0.19-0.96,0.25v-1.15
				c0.66-0.09,1.21-0.32,1.65-0.71c0.56-0.5,0.81-1.24,0.81-2.18v-0.93l-1.49,0.06c-0.35,0.02-0.67,0.05-0.96,0.09v-1.16
				c0.25-0.02,0.51-0.04,0.78-0.05l1.68-0.06v-0.62c0-0.81-0.19-1.37-0.5-1.74c-0.31-0.37-0.87-0.56-1.62-0.56
				c-0.11,0-0.22,0-0.34,0.01v-1.29c0.16-0.02,0.31-0.03,0.47-0.03c1.18,0,2.05,0.25,2.67,0.81c0.56,0.5,0.87,1.37,0.87,2.55v6.84
				l-1.18,0V87.79z M93.81,87.84c-0.28,0.04-0.58,0.07-0.9,0.07c-0.99,0-1.74-0.25-2.3-0.75c-0.56-0.5-0.87-1.24-0.87-2.18
				c0-1.82,1.36-2.86,4.07-3.12v1.16c-0.7,0.1-1.25,0.25-1.65,0.47c-0.56,0.31-0.81,0.87-0.81,1.55c0,0.56,0.19,0.93,0.5,1.24
				c0.31,0.31,0.81,0.43,1.37,0.43c0.21,0,0.4-0.01,0.59-0.04V87.84L93.81,87.84z M93.81,78.85c-0.74,0.06-1.6,0.3-2.46,0.73
				l-0.43-1.18c0.5-0.25,1.06-0.5,1.62-0.62c0.41-0.09,0.85-0.18,1.27-0.22V78.85z"/>
			<path class="st2" d="M113.61,87.79v-6.46c0-0.81-0.19-1.37-0.5-1.8c-0.31-0.43-0.87-0.62-1.55-0.62c-0.93,0-1.62,0.25-2.11,0.81
				c-0.5,0.56-0.68,1.37-0.68,2.49v5.59h-1.49v-6.46c0-0.81-0.19-1.37-0.5-1.8c-0.31-0.43-0.87-0.62-1.62-0.62
				c-0.93,0-1.62,0.31-2.05,0.87c-0.44,0.56-0.68,1.49-0.68,2.8v5.22h-1.49v-9.95h1.24l0.25,1.37h0.06c0.31-0.5,0.68-0.87,1.18-1.12
				c0.5-0.25,1.12-0.44,1.74-0.44c1.55,0,2.61,0.56,3.05,1.68l0.06,0c0.31-0.5,0.75-0.93,1.31-1.24c0.56-0.31,1.18-0.43,1.93-0.43
				c1.12,0,1.99,0.31,2.55,0.87c0.56,0.56,0.87,1.49,0.87,2.8v6.53h-1.55V87.79z"/>
			<path class="st2" d="M122.87,77.65c1.31,0,2.3,0.43,3.05,1.37c0.75,0.93,1.12,2.18,1.12,3.79c0,1.62-0.37,2.92-1.12,3.79
				c-0.75,0.87-1.74,1.37-3.05,1.37c-0.11,0-0.23,0-0.34-0.01v-1.29l0.09,0c0.93,0,1.62-0.31,2.05-0.99
				c0.44-0.68,0.68-1.68,0.68-2.92c0-1.31-0.25-2.24-0.68-2.92c-0.43-0.68-1.06-0.93-2.05-0.93l-0.09,0v-1.23
				C122.64,77.66,122.76,77.65,122.87,77.65z M122.53,87.96c-0.51-0.04-1-0.16-1.46-0.36c-0.56-0.25-0.99-0.62-1.37-1.12h-0.12
				l-0.31,1.31h-1.06V73.61h1.49v3.42c0,0.75,0,1.49-0.06,2.05h0.06c0.68-0.85,1.63-1.34,2.83-1.42v1.23
				c-1.01,0.02-1.72,0.33-2.14,0.87c-0.44,0.56-0.68,1.62-0.68,2.98c0,1.37,0.25,2.42,0.68,2.98c0.42,0.54,1.19,0.91,2.14,0.93
				V87.96z"/>
			<path class="st2" d="M131.08,77.84v6.46c0,0.81,0.19,1.43,0.56,1.8c0.37,0.37,0.93,0.62,1.74,0.62c1.06,0,1.8-0.31,2.3-0.87
				c0.5-0.56,0.75-1.49,0.75-2.8v-5.22l1.49,0v10.01h-1.24l-0.25-1.37h-0.06c-0.31,0.5-0.75,0.87-1.31,1.12
				c-0.56,0.25-1.18,0.37-1.86,0.37c-1.24,0-2.11-0.31-2.74-0.87c-0.62-0.56-0.93-1.49-0.93-2.8v-6.46H131.08z"/>
			<path class="st2" d="M145.62,77.65c0.44,0,0.87,0.06,1.18,0.12l-0.19,1.43c-0.44-0.06-0.75-0.12-1.12-0.12
				c-0.81,0-1.49,0.31-2.05,0.99c-0.56,0.68-0.87,1.49-0.87,2.42v5.35l-1.49,0V77.84h1.24l0.19,1.86h0.06
				c0.37-0.62,0.81-1.18,1.37-1.49C144.5,77.9,145,77.65,145.62,77.65z"/>
			<path class="st2" d="M156.87,77.84v0.93l-1.86,0.25c0.19,0.19,0.31,0.5,0.44,0.81c0.12,0.31,0.19,0.75,0.19,1.18
				c0,0.99-0.31,1.74-0.99,2.36c-0.65,0.59-1.46,0.84-2.55,0.87v-1.12c1.45-0.02,2.18-0.77,2.18-2.18c0-1.47-0.73-2.22-2.18-2.24v-1
				c0.48,0.01,0.95,0.07,1.37,0.19l3.42,0V77.84L156.87,77.84z M152.09,86.29l1.24,0c1.06,0,1.93,0.25,2.49,0.68
				c0.56,0.43,0.87,1.12,0.87,1.99c0,1.12-0.43,1.93-1.31,2.55c-0.77,0.55-1.88,0.81-3.29,0.86v-1.25c0.98-0.05,1.77-0.23,2.24-0.55
				c0.62-0.37,0.93-0.87,0.93-1.55c0-0.56-0.19-0.93-0.5-1.12c-0.31-0.19-0.93-0.31-1.86-0.31h-0.81V86.29z M152.09,84.24l-0.19,0
				c-0.31,0-0.56,0-0.81-0.06c-0.62,0.31-0.99,0.75-0.99,1.31c0,0.25,0.12,0.5,0.31,0.62c0.19,0.12,0.62,0.19,1.18,0.19h0.5v1.31
				h-0.99c-0.68,0-1.24,0.19-1.62,0.5c-0.37,0.31-0.56,0.75-0.56,1.37c0,0.56,0.25,0.93,0.68,1.24c0.43,0.31,1.12,0.44,1.93,0.44
				c0.19,0,0.38,0,0.56-0.01v1.25c-0.18,0.01-0.37,0.01-0.56,0.01c-1.31,0-2.3-0.25-3.05-0.75c-0.75-0.5-1.06-1.18-1.06-2.05
				c0-0.62,0.19-1.12,0.56-1.55c0.37-0.44,0.93-0.75,1.62-0.93c-0.25-0.12-0.5-0.31-0.62-0.56c-0.19-0.25-0.25-0.5-0.25-0.87
				c0-0.37,0.12-0.68,0.31-0.93c0.19-0.25,0.5-0.56,0.93-0.81c-0.5-0.19-0.93-0.56-1.24-1.06c-0.31-0.5-0.5-1.12-0.5-1.74
				c0-1.12,0.31-1.93,0.99-2.55c0.68-0.62,1.55-0.87,2.8-0.87l0.06,0v1l-0.06,0c-0.68,0-1.24,0.19-1.62,0.56
				c-0.37,0.37-0.68,0.99-0.68,1.74c0,0.68,0.19,1.24,0.62,1.55c0.43,0.31,0.93,0.56,1.68,0.56l0.06,0V84.24z"/>
		</g>
	</g>
</g>
</svg>
